<svg xmlns="http://www.w3.org/2000/svg" viewBox="0 0 330.27 56.31"><style><![CDATA[.N{fill:#fff}]]></style><path class="N" d="M67.86 34.45a16.27 16.27 0 0 0 10.7 4.44c4.11 0 6.2-1.5 6.2-3.85 0-2.74-3.33-3.72-7.18-4.57-5.42-1.17-11.88-2.61-11.88-9.66 0-5.15 4.44-9.59 12.4-9.59a18 18 0 0 1 12.27 4.44l-2.87 4.83a12.71 12.71 0 0 0-9.33-3.78c-3.59 0-5.87 1.3-5.87 3.52 0 2.41 3.13 3.26 6.85 4.11 5.48 1.17 12.2 2.74 12.2 10.18 0 5.55-4.63 9.79-13.11 9.79-5.35 0-10.24-1.7-13.51-4.89zM98 36.21V18h-5.22v-6H98V3.39h6.85V12h6.39v6h-6.39v16.52c0 2.15 1 3.72 3 3.72a4.42 4.42 0 0 0 3.07-1.11l1.63 5.16c-1.24 1.17-3.26 2-6.46 2-5.29.01-8.09-2.86-8.09-8.08zm14.21-8.48c0-9 6.2-16.51 16.18-16.51s16.25 7.5 16.25 16.51-6.13 16.57-16.24 16.57-16.19-7.5-16.19-16.57zm25.32 0c0-5.55-3.26-10.44-9.13-10.44s-9.07 4.89-9.07 10.44 3.26 10.51 9.07 10.51 9.13-4.9 9.13-10.51zM147.47 12h6.85v4.63a13.46 13.46 0 0 1 10.24-5.35v6.79a10.07 10.07 0 0 0-2.15-.2c-2.87 0-6.72 2-8.09 4.18v21.47h-6.85zM174 50.24c2.15 0 3.59-.65 4.5-2.74l1.57-3.59L167.18 12h7.31l9.2 23.62 9.2-23.62h7.37l-15.2 37.2c-2.15 5.35-5.94 7-10.83 7.11a19.37 19.37 0 0 1-3.85-.46l1-6.13a7.16 7.16 0 0 0 2.62.52zm33.57-14.03V18h-5.22v-6h5.22V3.39h6.85V12h6.39v6h-6.39v16.52c0 2.15 1 3.72 3 3.72a4.42 4.42 0 0 0 3.07-1.11l1.63 5.16c-1.24 1.17-3.26 2-6.46 2-5.28.01-8.09-2.86-8.09-8.08zm30.21-24.99c9.46 0 15.53 7.24 15.53 17.16V30H229c.52 4.76 4.11 8.68 10 8.68a13.34 13.34 0 0 0 9-3.45l3.13 4.5c-3.13 3-7.76 4.57-12.79 4.57-9.46 0-16.51-6.59-16.51-16.57-.04-9.13 6.62-16.51 15.95-16.51zm-8.87 14h17.75a8.43 8.43 0 0 0-8.87-8.35c-5.89-.04-8.56 4.47-8.89 8.32zM256.82 0h6.85v43.52h-6.85zm11.64 0h6.85v43.52h-6.85zm25.67 11.22c9.46 0 15.53 7.24 15.53 17.16V30h-24.34c.52 4.76 4.11 8.68 10 8.68a13.34 13.34 0 0 0 8.94-3.46l3.13 4.5c-3.13 3-7.76 4.57-12.79 4.57-9.46 0-16.51-6.59-16.51-16.57.05-9.12 6.71-16.5 16.04-16.5zm-8.87 14H303a8.43 8.43 0 0 0-8.87-8.35c-5.87-.04-8.55 4.47-8.88 8.32zM313.18 12H320v4.63a13.46 13.46 0 0 1 10.24-5.35v6.79a10.08 10.08 0 0 0-2.15-.2c-2.87 0-6.72 2-8.09 4.18v21.47h-6.85zM31.4 23.16l-17.74-8.42 11.5-5 18.6 7.97 15.47-6.93-15.47.83L25.12 3.2 0 14l25.12 12.12 6.28-2.96zm18.71 4.85l-6.24-2.65-18.75 8.23L0 21.77v6.48l25.16 11.7 24.95-11.94zm-6.42 10.01l-18.57 8.43L0 35.32v5.89l25.12 11.94 25.92-12.01-7.35-3.12z"/></svg>